<svg xmlns="http://www.w3.org/2000/svg" width="37" height="22" viewBox="0 0 37 22"><g fill="#CCC"><path d="M32.17 0H12v6h13.312l1.713-1.5zM11 .456L9.89 1.5 4.831 6H11zM29.5 13a.497.497 0 0 1-.416-.223L26 8.151v13.248l7-6.125v-5.172l-3.171 2.774A.498.498 0 0 1 29.5 13z"/><path d="M33.4.251l-.4.351-6.841 5.985v.001l3.441 5.16L33 8.773l1-.875 2.841-2.485zM24.686 7H3.79L.362 13h21.269z"/><path d="M21.938 14H4v8h21V8.585l-2.617 5.142a.5.5 0 0 1-.445.273zM12.5 20h-6a.5.5 0 0 1 0-1h6a.5.5 0 0 1 0 1zm0-3h-6a.5.5 0 0 1 0-1h6a.5.5 0 0 1 0 1z"/></g></svg>