<svg xmlns="http://www.w3.org/2000/svg" viewBox="0 0 126.75 126.39"><defs><style>.cls-1{fill:#faae4b}.cls-2{fill:#fefefe}</style></defs><g id="Layer_2"><g id="Layer_2-2"><path d="M106.45 0H20.3A20.27 20.27 0 0 0 0 20.25v85.9a20.27 20.27 0 0 0 20.3 20.25h86.15a20.27 20.27 0 0 0 20.3-20.25v-85.9A20.27 20.27 0 0 0 106.45 0z" class="cls-1"/><path d="M106.15 25.1c-4.68-3.18-10.08-2.83-14.75 1a3.16 3.16 0 0 1-2.2.73l-50.2.03a2.86 2.86 0 0 1-2.2-.7 11.26 11.26 0 0 0-8.26-3c-7.54 0-16.13 6.7-13.34 18.13 1.7 7 5.83 11.9 11.38 15.57 4.38 2.9 9.2 4.64 14.05 6.3a3.92 3.92 0 0 1 2.74 2.2 40.93 40.93 0 0 0 8 11.7c1.2 1.32 3.17 2.56 3.36 4.05.2 1.67-1.8 3.1-2.86 4.65-1.82 2.67-3.7 5.3-5.7 8.13h34.14c-.3-.53-.5-.88-.7-1.2-2.34-3.48-4.66-7-7-10.4-.62-.9-.62-1.4.2-2.1a52.88 52.88 0 0 0 10.76-13.86 5.9 5.9 0 0 1 3.15-2.73 73.78 73.78 0 0 0 12-5.47c6.68-4.06 11.72-9.48 13.13-18.07 1.02-5.97-1.15-11.86-5.68-14.95zm-67.1 32.1c-6.63-3.25-12.94-7-16.92-14-3-5.3-1.44-10.77 3.46-13.06 4.28-2 8.32.7 8.7 5.67a73.77 73.77 0 0 0 4 17.87c.37 1.07.74 2.13 1.1 3.2zM105.52 42C103 46.87 99 50.18 94.76 53.16a47.4 47.4 0 0 1-7.44 4.28 87.24 87.24 0 0 0 4.3-16.24c.26-1.84.5-3.68.63-5.54.22-3.37 1.76-5.37 4.86-6a7.65 7.65 0 0 1 8.25 3.4c1.98 2.86 1.7 5.94.17 8.94zM81.74 99.37c0-1.1-.3-1.52-1.36-1.52H46.5c-1 0-1.4.4-1.37 1.5.05 2 .1 4 0 6-.1 1.6.36 2.1 1.87 2.08 5.4-.1 10.83 0 16.25 0H80.1c1.3 0 1.73-.43 1.67-1.84-.12-2.07-.08-4.15-.03-6.23z" class="cls-2"/><path d="M63.38 38.32l3.53 7.16 7.9 1.15-5.7 5.57 1.34 7.87-7.06-3.72-7.07 3.72 1.36-7.87-5.72-5.57 7.9-1.15 3.54-7.16z" class="cls-1"/></g></g></svg>