<svg xmlns="http://www.w3.org/2000/svg" viewBox="0 0 126.75 126.39"><defs><style>.cls-1{fill:#fba7a7}.cls-2{fill:#fff;stroke:#fff;stroke-miterlimit:10;fill-rule:evenodd}</style></defs><g id="Layer_2"><g id="Layer_4"><path d="M106.45 0H20.3A20.27 20.27 0 0 0 0 20.25v85.9a20.27 20.27 0 0 0 20.3 20.25h86.15a20.27 20.27 0 0 0 20.3-20.25v-85.9A20.27 20.27 0 0 0 106.45 0z" class="cls-1"/><path d="M78.88 76.93a2 2 0 0 0-.3-2.53 1.6 1.6 0 0 0-2.32.32c-3.5 4.22-7.3 6.23-12.64 6.23S54.85 79.35 51 74.7a1.6 1.6 0 0 0-2.33-.3 2 2 0 0 0-.3 2.52c4.58 5.6 8.86 7.7 15.28 7.7s11.18-2.52 15.27-7.7m-27.37-16.7v-7.66a3.65 3.65 0 1 0-7.3 0v7.65a3.65 3.65 0 1 0 7.3 0m51.87-8.6c-4.53-19.23-20.73-33.5-40-33.5s-35.52 14.27-40 33.5c-4.83 1.9-8.25 7.5-8.25 14 0 7.5 4.53 13.72 10.46 14.67a.1.1 0 0 0 .1.1h6.74a39.82 39.82 0 0 1-4.23-18c0-21 15.8-38 35.2-38s35.22 17 35.22 38c0 14.16-7.14 26.4-17.8 32.96a5.67 5.67 0 0 0-1.42-.2 6.34 6.34 0 1 0 6 6.33 6.54 6.54 0 0 0-.2-1.48 44.3 44.3 0 0 0 15.9-19.75c5.94-1.06 10.56-7.18 10.56-14.68 0-6.55-3.52-12.14-8.25-14M82.3 60.2v-7.64a3.65 3.65 0 1 0-7.3 0v7.65a3.65 3.65 0 1 0 7.3 0m.2-2" class="cls-2"/></g></g></svg>