<svg xmlns="http://www.w3.org/2000/svg" viewBox="0 0 130 129"><defs><style>.cls-1{fill:#00a0e8}.cls-2{fill:#fff}</style></defs><g id="Layer_3"><path d="M108 1.14H21.87A20.27 20.27 0 0 0 1.57 21.4v85.9a20.27 20.27 0 0 0 20.3 20.24H108a20.27 20.27 0 0 0 20.3-20.25V21.4A20.27 20.27 0 0 0 108 1.13z" class="cls-1"/><path d="M105.93 80.5c-5.07-1.7-11.88-4.28-19.46-7A101.85 101.85 0 0 0 97 46.84H72v-9h30.6v-5H72.07v-15h-12.5A2.12 2.12 0 0 0 57.4 20v12.8h-31v5h31v9H31.82v5H81.4a88 88 0 0 1-7.15 17.4C58.17 64 41 59.67 30.22 62.3 23.32 64 18.9 67 16.28 70.2c-12 14.52-3.4 36.6 21.9 36.6 15 0 29.36-8.32 40.52-22 16.65 8 49.62 21.68 49.62 21.68V86.93s-4.14-.33-22.4-6.43zm-70.1 17.84c-19.73 0-25.56-15.5-15.8-24 3.24-2.86 9.2-4.26 12.35-4.58 11.7-1.15 22.56 3.3 35.36 9.53-9 11.7-20.46 19.04-31.92 19.04z" class="cls-2"/></g></svg>