<svg xmlns="http://www.w3.org/2000/svg" viewBox="0 0 130 129"><defs><style>.cls-1{fill:#b6c975}.cls-2{fill:#fff}</style></defs><g id="Layer_5"><path d="M107.9 1.4H21.77a20.27 20.27 0 0 0-20.3 20.24v85.9a20.27 20.27 0 0 0 20.3 20.25h86.15a20.27 20.27 0 0 0 20.3-20.27v-85.9A20.27 20.27 0 0 0 107.9 1.4z" class="cls-1"/><path d="M67.66 70.3l19.4 37.4 4.44-4.44-1.53.24-6.55-31.24a26 26 0 0 0 6.45-4.42 6.07 6.07 0 0 0-3.78-3.78 20.48 20.48 0 0 0-3.68 3.66l-2.17-10.37 19.45-20.2a25 25 0 0 0 2.65-4.47c.63-1.74 1-5.1.4-5.74s-4-.24-5.75.4A25 25 0 0 0 92.52 30l-20.2 19.42L62 47.24a20.48 20.48 0 0 0 3.66-3.66 6.07 6.07 0 0 0-3.78-3.78 26 26 0 0 0-4.42 6.45l-31.3-6.54.25-1.5-4.4 4.43L59.38 62l-10 10.37a111.4 111.4 0 0 0-9.77 12.17L24.88 82.5l.24-1.35-4.35 4.35 13.5 7.16a22.4 22.4 0 0 0-1.8 4.54A22.4 22.4 0 0 0 37 95.42l7.16 13.5 4.35-4.36-1.32.24-2.05-14.7a111.4 111.4 0 0 0 12.17-9.8z" class="cls-2"/></g></svg>