<svg xmlns="http://www.w3.org/2000/svg" viewBox="0 0 45.2 29.3"><style>.st0{fill:#666}</style><path d="M26.7 12c.2.1.3.3.3.6 0 .4-.1.7-.4.9s-.7.3-1.2.3h-.2c-.2 0-.3-.2-.3-.4l.3-1.2c0-.2.2-.4.4-.4h.3c.3 0 .6 0 .8.2zM14 14.8c-.2 0-.4.1-.6.1l-.4.3c-.1.1-.1.3-.1.5l.1.3c.1.1.3.1.5.1s.3 0 .5-.1l.4-.2.1-.2c.1-.2.2-.7.2-.8l-.1-.1s-.4.1-.6.1zm17 0c-.2 0-.5.1-.6.1-.2.1-.4.2-.4.3-.1.1-.1.3-.1.5l.1.3c.1.1.3.1.5.1.1 0 .3 0 .5-.1l.4-.2.2-.2c.1-.2.2-.7.2-.8l-.1-.1c-.1.1-.5.1-.7.1zm-22.2-3h-.3c-.2 0-.4.2-.4.4l-.3 1.2c0 .2.1.4.3.4h.2c.5 0 .9-.1 1.2-.3s.4-.5.4-.9c0-.2-.1-.4-.3-.6-.1-.2-.4-.2-.8-.2zM45.1 1.2v27c0 .6-.5 1.2-1.2 1.2H1.1c-.6 0-1.2-.5-1.2-1.2v-27C0 .5.5 0 1.1 0H44c.6 0 1.1.5 1.1 1.2zM11.7 12.4c0-.3-.1-.6-.2-.8-.1-.2-.3-.4-.5-.6-.2-.1-.5-.2-.8-.3s-.7-.1-1.1-.1h-2c-.2 0-.4.2-.5.4l-1.3 5.7c0 .2.2.3.4.3h.9c.2 0 .4-.1.4-.3l.3-1.4c0-.2.2-.4.5-.4h.3c1.1 0 2-.2 2.7-.7.6-.5.9-1.1.9-1.8zm4.9.9c0-.4-.2-.7-.5-.9-.4-.2-.9-.3-1.7-.3-.4 0-.8 0-1.1.1-.3 0-.3.1-.5.1-.4.1-.4.4-.4.4l-.1.5c-.1.3.1.3.2.3.2 0 .2-.1.6-.2.3-.1.6-.1.9-.1.4 0 .7 0 .9.1s.3.2.3.4v.1l-.1.1c-.5 0-.9.1-1.4.1-.5.1-.9.2-1.2.3-.4.2-.6.4-.8.6-.2.3-.3.6-.3 1s.1.7.4.9c.3.2.6.3 1 .3.3 0 .4 0 .6-.1l.5-.2.4-.2.4-.2v.2c0 .2.1.3.2.4h.9c.2 0 .4-.2.4-.4l.7-3v-.2l-.3-.1zm2.1 5.6l3.7-6.3s.4-.5 0-.5h-1.1c-.2 0-.5.2-.6.4 0 0-1.3 2.3-1.5 2.5H19l-.4-2.5c0-.2-.3-.4-.5-.4h-.8c-.2 0-.3.2-.3.4 0 0 .6 3.6.8 4.5.1.5 0 .6 0 .6l-.8 1.3c-.1.2-.1.4.1.4h1c.2 0 .4-.2.6-.4zm10-6.5c0-.3-.1-.6-.2-.8s-.3-.4-.5-.6c-.2-.1-.5-.2-.8-.3s-.7-.1-1.1-.1h-2c-.2 0-.4.2-.4.4l-1.3 5.7c-.1.2.1.4.3.4h.9c.2 0 .4-.2.4-.4l.3-1.4c0-.2.2-.4.5-.4h.3c1.1 0 2-.2 2.7-.7.6-.4.9-1.1.9-1.8zm4.9.9c0-.4-.2-.7-.5-.9-.4-.2-.9-.3-1.7-.3-.4 0-.8 0-1.1.1-.3 0-.3.1-.5.1-.4.1-.4.4-.4.4l-.1.5c-.1.3.1.3.2.3.2 0 .2-.1.6-.2.3-.1.6-.1.9-.1.4 0 .7 0 .8.1.2.1.3.2.3.4v.1l-.1.1c-.5 0-.9.1-1.4.1-.5.1-.9.2-1.2.3-.4.2-.6.4-.8.6-.2.3-.3.6-.3 1s.1.7.4.9.6.3 1 .3c.3 0 .4 0 .6-.1l.4-.2.4-.2.4-.2v.1c0 .2.1.3.2.4h.9c.2 0 .4-.2.4-.4l.7-3v-.2h-.1zm3-2.3c0-.2-.1-.4-.3-.4h-.8c-.2 0-.3.1-.4.3v.3l-1.2 5.3v.2c0 .2.1.3.2.3h.9c.2 0 .3-.1.4-.3v-.1l1.2-5.6zm1.6-.7h-.3V10h-.2v.3h-.1v.1h.1v.5l.1.2.2.1h.2V11h-.3v-.6l.3-.1zm1.5.3l-.1-.3-.2-.1h-.2l-.2.1h-.4l-.1.1v-.1h-.1v.9h.1v-.7l.1-.1h.2l.1.1v.7h.2v-.6l.1-.1h.2l.1.1v.7h.2v-.7z" class="st0"/></svg>