<svg xmlns="http://www.w3.org/2000/svg" width="28" height="28"><title>6FE2836A-5E89-4116-83A2-7842B13F7B1E</title><desc>Created with sketchtool.</desc><g fill="none"><g fill="#666"><path d="M16.4 20.98v-2.8c0-.6-.17-.9-.5-.9-.2 0-.4.1-.6.3v4c.2.2.4.28.6.28.33 0 .5-.3.5-.88zm3.3-2.18h1.18v-.6c0-.6-.2-.9-.6-.9-.4 0-.58.3-.58.9v.6zM9.5 14.05v1.25H8.07v7.56H6.75V15.3h-1.4v-1.25H9.5zm3.6 2.25v6.56h-1.2v-.72c-.47.54-.92.8-1.36.8-.38 0-.65-.15-.75-.5-.1-.2-.12-.5-.12-.96V16.3h1.18v4.83c0 .26 0 .42.02.46 0 .17.1.26.26.26.25 0 .5-.18.75-.56v-5h1.2zm4.5 2v2.6c0 .58-.05 1.03-.14 1.3-.14.5-.46.75-.94.75-.4 0-.82-.25-1.22-.74v.66h-1.2v-8.8h1.2v2.87c.38-.47.8-.72 1.22-.72.48 0 .8.26.94.76.1.27.13.7.13 1.33zm4.47 2.3v.15c0 .4-.02.64-.03.77-.04.27-.13.5-.27.7-.32.5-.82.73-1.43.73-.63 0-1.1-.24-1.45-.68-.26-.32-.38-.84-.38-1.54v-2.3c0-.7.1-1.2.36-1.54.33-.45.82-.7 1.42-.7s1.08.25 1.4.7c.25.33.37.83.37 1.53v1.36H19.7v1.15c0 .6.2.9.6.9.3 0 .47-.15.54-.46 0-.08.02-.35.02-.8h1.2zM14.02 5.87v2.78c0 .6-.2.9-.57.9-.4 0-.57-.3-.57-.9V5.88c0-.6.17-.93.57-.93.37 0 .57.32.57.93zm9.52 12.73c0-1.53 0-3.15-.34-4.64-.25-1.05-1.1-1.82-2.13-1.92-2.43-.27-4.9-.27-7.36-.27-2.43 0-4.9 0-7.32.27-1.04.1-1.9.87-2.13 1.92-.34 1.5-.36 3.1-.36 4.65 0 1.53 0 3.15.35 4.65.23 1.04 1.1 1.8 2.1 1.93 2.45.27 4.92.27 7.36.27 2.46 0 4.93 0 7.37-.27 1.02-.13 1.88-.9 2.1-1.93.37-1.5.37-3.12.37-4.64zM10.04 7l1.62-5.28h-1.34l-.9 3.48-.96-3.48h-1.4c.28.82.58 1.64.85 2.46.44 1.25.7 2.18.83 2.82v3.6h1.32v-3.6zm5.17 1.45V6.1c0-.7-.1-1.2-.36-1.55-.34-.44-.8-.67-1.4-.67-.6 0-1.06.23-1.4.67-.24.34-.36.86-.36 1.56v2.33c0 .7.12 1.2.37 1.55.33.45.8.68 1.4.68.6 0 1.05-.23 1.4-.68.24-.32.36-.85.36-1.55zm3.25 2.14h1.2v-6.6h-1.2V9c-.27.37-.52.55-.75.55-.16 0-.27-.1-.3-.28 0-.05 0-.2 0-.48V3.96h-1.2V9.2c0 .46.03.76.1.98.13.32.4.48.77.48.45 0 .9-.27 1.38-.8v.7zm8.98-5.43V22.3c0 2.83-2.3 5.13-5.14 5.13H5.13C2.3 27.43 0 25.13 0 22.3V5.13C0 2.3 2.3 0 5.14 0H22.3c2.83 0 5.13 2.3 5.13 5.14z"/></g></g></svg>