<svg xmlns="http://www.w3.org/2000/svg" width="33" height="23"><g fill="none" style="mix-blend-mode:multiply"><path fill="#666" d="M22.3 17.02V6.72a7.85 7.85 0 0 1-.94.9c-2.4 1.84-4.3 3.35-5.7 4.53a26.32 26.32 0 0 1-1.1.9c-.3.2-.7.42-1.17.64-.5.2-.96.32-1.4.32-.44 0-.9-.1-1.4-.33-.47-.23-.86-.44-1.14-.66a26.32 26.32 0 0 1-1.12-.9c-1.4-1.17-3.3-2.68-5.7-4.52a7.85 7.85 0 0 1-.93-.9v10.3c0 .12.06.22.14.3a.4.4 0 0 0 .3.13h19.72a.4.4 0 0 0 .3-.13.4.4 0 0 0 .13-.3zm0-14.08v-.32a3.2 3.2 0 0 0-.02-.18.37.37 0 0 0-.04-.17 7.83 7.83 0 0 1-.07-.12.25.25 0 0 0-.13-.1.48.48 0 0 0-.18-.03H2.14a.4.4 0 0 0-.3.13.4.4 0 0 0-.13.3c0 1.5.67 2.77 1.98 3.8C5.4 7.6 7.2 9.02 9.05 10.5l.47.4c.26.2.47.38.62.5.15.1.35.25.6.42.24.16.47.28.67.36.22.1.4.13.6.13.2 0 .38-.04.6-.12.2-.07.42-.2.67-.36.24-.17.44-.3.6-.43.14-.12.35-.3.6-.5l.48-.4a1952.07 1952.07 0 0 1 5.37-4.25c.48-.38.93-.9 1.34-1.55.42-.64.63-1.23.63-1.76zm1.7-.5v14.58c0 .6-.2 1.1-.63 1.5-.42.43-.92.64-1.5.64H2.13c-.6 0-1.1-.2-1.5-.63C.2 18.1 0 17.6 0 17.03V2.44c0-.6.2-1.1.63-1.52.42-.4.92-.63 1.5-.63h19.73c.6 0 1.1.22 1.5.64.43.42.64.92.64 1.5z"/><path fill="#F3F3F3" d="M25 22.83a.53.53 0 0 1-.4-.16l-5.56-5.37a2.95 2.95 0 0 1-.25-.24 9.18 9.18 0 0 1-.5-.58 7.9 7.9 0 0 1-.6-.87 5.4 5.4 0 0 1-.5-1.07 3.9 3.9 0 0 1-.2-1.23c0-1.3.38-2.34 1.13-3.08.76-.73 1.8-1.1 3.14-1.1.37 0 .74.06 1.13.2.38.12.74.3 1.07.5.33.22.6.43.85.62.24.2.47.4.68.6.2-.2.44-.4.68-.6.24-.2.52-.4.85-.6.33-.23.7-.4 1.07-.53.4-.12.76-.18 1.13-.18 1.33 0 2.38.37 3.14 1.1.75.74 1.13 1.77 1.13 3.08 0 1.3-.68 2.65-2.05 4l-5.56 5.37a.53.53 0 0 1-.4.16z"/><path fill="#666" d="M24 20.3a.4.4 0 0 1-.3-.13l-4.17-4.04a2.2 2.2 0 0 1-.2-.17 6.88 6.88 0 0 1-.36-.44 5.93 5.93 0 0 1-.45-.65 4.06 4.06 0 0 1-.36-.8 2.93 2.93 0 0 1-.16-.94c0-.98.28-1.75.85-2.3.57-.55 1.35-.83 2.35-.83.28 0 .56.05.85.14.3.1.55.23.8.4.25.16.46.3.64.45.17.13.34.3.5.45.16-.16.33-.32.5-.46.2-.15.4-.3.65-.47.25-.16.5-.3.8-.4a2.67 2.67 0 0 1 .85-.13c1 0 1.78.28 2.35.83.57.55.85 1.32.85 2.3 0 1-.5 2-1.53 3.02l-4.17 4.02a.4.4 0 0 1-.3.12z"/></g></svg>