<svg xmlns="http://www.w3.org/2000/svg" viewBox="0 0 45.2 29.3"><style>.st0{fill:#666}</style><path d="M44 .1H1.2C.6.1 0 .6 0 1.3v26.9c0 .6.5 1.2 1.2 1.2H44c.6 0 1.2-.5 1.2-1.2v-27c0-.6-.6-1.1-1.2-1.1zM3.6 8.9h4.8c.7 0 1.2.2 1.4.9l1 5c-1-2.6-3.5-4.8-7.3-5.7l.1-.2zm5.8 11.4l-2.8-9.5c2 1.3 3.7 3.3 4.3 4.7l.3 1.2 3-7.8h3.3l-4.9 11.4H9.4zm10.6.1h-3.1L18.8 9h3.1L20 20.4zm5.4.1c-1.4 0-2.7-.3-3.5-.6l.4-2.6.4.2c1 .4 1.7.6 2.9.6.9 0 1.8-.3 1.9-1.1 0-.5-.4-.9-1.6-1.4-1.2-.5-2.7-1.5-2.7-3.1 0-2.2 2.2-3.8 5.2-3.8 1.2 0 2.2.2 2.8.5l-.4 2.5-.3-.1c-.6-.2-1.3-.5-2.3-.4-1.2 0-1.8.5-1.8 1s.7.9 1.7 1.4c1.8.8 2.6 1.8 2.6 3.1.1 2.3-2.1 3.8-5.3 3.8zm13.4-.1s-.3-1.3-.4-1.7h-4c-.1.3-.7 1.7-.7 1.7h-3.3L35 10c.5-.8 1.1-1 1.8-1h2.4l2.5 11.4h-2.9zm0 0M37 12.1c-.2.4-.4 1.1-.4 1.1s-1 2.5-1.2 3.2H38c-.1-.6-.7-3.3-.7-3.3l-.3-1zm0 0" class="st0"/></svg>