<svg xmlns="http://www.w3.org/2000/svg" viewBox="0 0 45.2 29.3"><style>.st0{fill:#676766}</style><path d="M12 12.7c-.8 0-1.5.3-1.5.3l-.1 1s.5-.2 1.3-.2c.5 0 .8.1.8.4v.3H12c-1.1 0-2.2.5-2.2 1.8 0 1.1.7 1.3 1.2 1.3.9 0 1.2-.6 1.3-.6v.5h1.1l.5-3.4c-.2-1.3-1.4-1.4-1.9-1.4zm-.6 4c-.4 0-.5-.3-.5-.5 0-.3.2-.7 1.1-.7h.3c0 .2-.1 1.2-.9 1.2zm3.9-2.4c0 .6 1.5.3 1.5 1.8 0 1.6-1.6 1.6-1.9 1.6-1 0-1.4-.1-1.4-.2l.2-1.1s.5.2 1.1.2c.3 0 .8 0 .8-.4 0-.6-1.5-.5-1.5-1.9 0-1.2.9-1.6 1.8-1.6.7 0 1.1.1 1.1.1l-.2 1.1s-.7-.1-.8-.1c-.5.1-.7.1-.7.5zm2.9 1.8c0 .2 0 .4.4.4h.3l-.2 1c-.1 0-.5.2-.9.2-.6 0-1-.3-1-1 0-.5.7-4.5.7-4.5h1.2l-.1.7h.6V14h-.7l-.3 2.1zm4.8-.5s.2-.8.2-1.1c0-.8-.4-1.8-1.8-1.8-1.2 0-2.2 1.3-2.2 2.8 0 1.7 1.2 2.1 2.1 2.1.9 0 1.3-.2 1.3-.2l.2-1.2s-.7.3-1.3.3c-1.3 0-1.1-1-1.1-1H23zm-1.6-1.8c.7 0 .6.8.6.8h-1.4s.1-.8.8-.8zm-11.2-2.1l-1 5.9H8l.7-4.4-1.6 4.4h-.9l-.1-4.4-.8 4.4H4.2l1-5.9H7v3.6l1.2-3.6h2zm15.6-.7h-6.4c.1-.1.3-.6.6-1.2h5.3c.2.3.4.7.5 1.2zm-1.2-2.5h-3.9c.3-.4.5-.8.8-1.2h2.2c.4.4.7.8.9 1.2zm-2 14.7c-.4-.4-.8-.8-1.2-1.3h2.4c-.4.5-.8.9-1.2 1.3zm2.1-2.4h-4.1c-.2-.4-.5-.8-.7-1.2h5.5c-.3.4-.5.8-.7 1.2zm1.4-8c-.2.3-.3.6-.5 1.4-.9-.3-.9 1.4-1.3 3.4H23l.8-4.8H25l-.1.7s.4-.8 1-.8c.1.1.2.1.2.1zm2.3 3.7c.4 0 1-.3 1-.3l-.2 1.3s-.7.2-1.1.2c-1.5 0-2.2-1-2.2-2.5 0-2.3 1.4-3.5 2.8-3.5.6 0 1.4.3 1.4.3l-.2 1.3s-.5-.4-1.1-.4c-.8 0-1.6.8-1.6 2.3 0 .6.3 1.3 1.2 1.3zm12.1.4c-.1 0-.1.1-.1.1v.4c0 .1.1.1.1.1.1 0 .1.1.2.1s.1 0 .2-.1c.1 0 .1-.1.1-.1 0-.1.1-.1.1-.2s0-.1-.1-.2c0-.1-.1-.1-.1-.1h-.4zm.4.2v.4c0 .1-.1.1-.1.1h-.4l-.1-.1v-.4c0-.1.1-.1.1-.1h.4s.1 0 .1.1zm-5-1.4c0 1 .5 2 1.5 2 .7 0 1.1-.5 1.1-.5l-.1.4h1.2l.9-5.9h-1.2l-.3 1.6s-.5-.6-1.2-.6c-1 0-1.9 1.4-1.9 3zm3-.8c0 .7-.3 1.5-1 1.5-.4 0-.7-.4-.7-1 0-1 .4-1.6 1-1.6.4.1.7.4.7 1.1zm2 6.2s-.1 0 0 0l.1-.1v-.1H40.7v.4h.1v-.2h.1c-.1 0-.1.1 0 0v.2h.1l-.1-.2c0 .1 0 0 0 0zm-.1-.1l-.1-.1h.2l-.1.1c.1 0 .1 0 0 0 .1 0 .1 0 0 0zM44 .1H1.2C.5.1 0 .6 0 1.2v26.9c0 .6.5 1.2 1.2 1.2H44c.6 0 1.2-.5 1.2-1.2V1.2c0-.6-.5-1.1-1.2-1.1zm-2.9 21.2c0 .1-.1.1-.1.1-.1 0-.1.1-.2.1s-.1 0-.2-.1c-.1 0-.1-.1-.1-.1 0-.1-.1-.1-.1-.2s0-.1.1-.2c0-.1.1-.1.1-.1.1 0 .1-.1.2-.1s.1 0 .2.1c.1 0 .1.1.1.1 0 .1.1.1.1.2 0 0 0 .1-.1.2zm.9-6.7c0 6.4-5.2 11.6-11.6 11.6-3 0-5.7-1.1-7.8-3-2.1 1.9-4.8 3-7.8 3-6.4 0-11.6-5.2-11.6-11.6C3.2 8.2 8.4 3.1 14.7 3h.1c3 0 5.7 1.1 7.8 3 2.1-1.9 4.8-3 7.8-3C36.8 3.1 42 8.3 42 14.6zM40.5 17v.4h.1v-.2h.1l.1.1v.1h.1l-.1-.1s0-.1-.1-.1h.1V17h-.3zm.2.1c0 .1 0 .1 0 0 0 .1 0 .1 0 0l-.2.1v-.1h.2zm-8.6-4.4c-.8 0-1.5.3-1.5.3l-.2 1s.5-.2 1.3-.2c.5 0 .8.1.8.4v.3H32c-1.1 0-2.2.5-2.2 1.8 0 1.1.7 1.3 1.2 1.3.9 0 1.2-.6 1.3-.6v.5h1.1l.5-3.4c-.1-1.3-1.4-1.4-1.8-1.4zm-.7 4c-.4 0-.5-.3-.5-.5 0-.3.2-.7 1.1-.7h.3c0 .2-.1 1.2-.9 1.2zm4.6-2.5c-.9-.3-.9 1.4-1.3 3.4h-1.3l.8-4.8h1.2l-.1.7s.4-.8 1-.8h.2c-.2.4-.3.7-.5 1.5zm0 0" class="st0"/></svg>