<svg xmlns="http://www.w3.org/2000/svg" width="80" height="28"><g fill="#666" style="mix-blend-mode:multiply"><path d="M6.9 15.05c-.73.08-2.1.4-2.84 1.1C1.83 18.23 3.16 22 7.7 22c2.6 0 5.24-1.78 7.3-4.63-2.94-1.52-5.42-2.6-8.1-2.32"/><path d="M23.05 17.59c4.04 1.34 4.95 1.4 4.95 1.4V4.5A4.48 4.48 0 0 0 23.52 0H4.48A4.48 4.48 0 0 0 0 4.48v19.04A4.48 4.48 0 0 0 4.5 28H23.5A4.48 4.48 0 0 0 28 23.52v-.2s-7.28-3.02-10.96-4.8c-2.47 3.04-5.65 4.88-8.96 4.88-5.6 0-7.48-4.88-4.84-8.1.58-.7 1.56-1.37 3.08-1.75 2.38-.6 6.18.36 9.73 1.53a19.45 19.45 0 0 0 1.58-3.85H6.68v-1.1h5.65v-2H5.5v-1.1h6.83V4.17s0-.47.5-.47h2.74v3.32h6.76v1.1h-6.76v2h5.52a22.45 22.45 0 0 1-2.35 5.9c1.67.6 3.18 1.2 4.3 1.57M68.9 5.06h8.18V7H80V4.7c0-.5-.34-.93-.76-.94h-4.7V2h-3.07v1.78H66V7h2.92V5.07zM51.1 2L48 8.85h2.38V17h2.6V6.2h-.94L54 2zM80 16.98l-.9-3.1a.46.46 0 0 0-.44-.32H76.3l.68 2.36h-2.8v-4.58h5.5v-1.1h-5.5V8.1h5.5V7H66v1.1h5.48v2.15H66v1.08h5.48v4.58H66V17h14v-.04zM58.15 7.3c-.1-.18-.34-.3-.6-.3H55l2 5h3l-1.85-4.7zM62.94 2h-2.58v2.7H54v1.08h6.36v9.7a.45.45 0 0 1-.4.4h-1.32V17h3.34a1.03 1.03 0 0 0 .97-1V5.8H64V4.7h-1.05V2zm-15.9 5.25H42V5.42h5.83V4.3h-5.82V2h-2.6c-.28 0-.5.24-.5.54V4.3h-5.78v1.13h5.78v1.8h-4.88v1.14h9.72s-.53 2.13-3.2 4.4c-2.4-1.82-3.2-3.27-3.2-3.27h-2.62c1.06 1.84 2.56 3.3 4.18 4.5-1.5.96-3.4 1.9-5.9 2.64V18s3.84-.73 7.55-2.93C44.25 17.25 48 18 48 18v-1.28c-2.38-.88-4.28-1.84-5.77-2.78 2.16-1.6 4.05-3.78 4.8-6.7M38.27 25.6l.46 1.4H40l-2.52-7h-.97L34 27h1.28l.47-1.4h2.5zm-1.23-3.8l.94 2.9h-1.92l.98-2.9zM44 20v7h4v-.96h-2.8V20zm8 0h1v7h-1zm9.7 0H59v7h1.25v-2.7h1.46c1.36 0 2.3-.88 2.3-2.15S63.06 20 61.7 20m-.06 3.35h-1.4v-2.4h1.4c.7 0 1.1.62 1.1 1.2 0 .6-.38 1.2-1.1 1.2m7.62 2.24l.46 1.4H71l-2.52-7h-.97L65 27h1.28l.47-1.4h2.5zm-1.23-3.8l.94 2.9h-1.92l.98-2.9zm9.73-1.8l-1.25 3-1.26-3H74l1.93 4.13V27h1.14V24.1L79 20h-1.24z"/></g></svg>