<svg xmlns="http://www.w3.org/2000/svg" width="46" height="28"><path fill="#666" d="M21.6 9.56c.18-.83 0-1.24-.55-1.24s-.9.4-1.06 1.24c-.2.83-.03 1.24.52 1.22.55.02.9-.38 1.1-1.22zm11.88.7c-.07.32.07.5.45.52.42.02.72-.35.88-1.1-.8-.04-1.23.16-1.32.58zM31.2 7.7c.12-.5-.2-.76-.98-.74-.18.02-.3.02-.35 0l-.32 1.5c.06 0 .18 0 .34.04.76.07 1.2-.2 1.3-.8zm-8.5 10.15h1.8c.13 0 .2-.07.24-.23l.12-.56h-2l-.16.8zm6.65-1.13h1.04l.24-1.17H29.6l-.25 1.17zM41.82 0H8.36c-2.3 0-4.18 1.84-4.18 4.12L0 23.9C0 26.15 1.87 28 4.18 28h33.46c2.3 0 4.18-1.84 4.18-4.1L46 4.1C46 1.84 44.13 0 41.82 0zM34.6 8.2c-.3.02-.5.2-.62.55h-1.1c.12-.42.36-.73.74-.92.3-.14.68-.22 1.17-.24 1.02 0 1.46.47 1.28 1.4L35.64 11l-.03.14c.02.13.02.22 0 .26h-1c0-.18.02-.34.05-.5-.3.38-.74.56-1.3.56-.78-.04-1.12-.4-1-1.07.16-.55.53-.95 1.1-1.18.35-.13.86-.2 1.5-.2l.08-.35c0-.3-.14-.45-.43-.47zm-.2 6.9l-.24 1.02h-.96c-.39.02-.57-.17-.56-.57l-.06-1.28h1.3l.06.6c-.04.18.03.25.22.23h.23zm-5.5-9.04h1.7c1.46-.02 2.08.53 1.84 1.65-.26 1.06-1 1.6-2.24 1.66h-.85l-.45 2.06h-1.15l1.16-5.36zM24 7.68h1.1l-.08.44.03.03c.27-.35.7-.53 1.26-.55.64.1 1 .36 1.05.8 0 .24-.02.43-.04.6l-.5 2.42h-1.16l.5-2.23c.08-.57-.07-.86-.5-.88-.42.04-.72.33-.87.87l-.48 2.22h-1.12l.8-3.74zM21.2 7.6c1.25.06 1.76.7 1.55 1.97-.32 1.23-1.12 1.87-2.38 1.9-1.27-.03-1.8-.67-1.56-1.9.32-1.26 1.12-1.92 2.4-1.97zm.5 7.12l-.25 1.13h-1.92c-.24.43-.52.63-.82.6h-.98l.22-1.02h.2c.16.03.3-.06.36-.26l.5-.94h1.35l-.26.5h1.6zm-4.1-8.66h1.2l-.2.95h-1.2l.2-.94zm-9.1 5.4c-1.55-.03-2.2-.7-1.95-2.04l.73-3.36h1.17l-.63 2.92c-.33 1.2-.06 1.76.84 1.7.83.07 1.34-.5 1.54-1.7l.63-2.93H12L11.3 9.4c-.34 1.35-1.27 2.03-2.8 2.07zM16.04 9l-.52 2.42H14.4l.47-2.23c.1-.57-.07-.86-.5-.88-.42.04-.7.33-.86.87l-.47 2.22H11.9l.82-3.74h1.12l-.1.43.03.04c.27-.35.7-.53 1.27-.55.65.1 1 .36 1.06.8-.02.23-.03.43-.05.6zm1.22-1.32h1.15l-.8 3.74h-1.15l.8-3.74zm2.37 15.08h-1.76c-.43 0-.57-.3-.42-.87l.42-1.93h-.9l.25-1.06h.88l.23-1h-.85l.23-1.07h3.54L21 17.9h-1.4l-.24 1h1.4l-.24 1.07h-1.38l-.33 1.5c-.07.26.03.38.32.35h.73l-.2.94zm6.1-3c-.14.54-.44.8-.87.8h-.6l-.02 1.1c-.03.18.1.27.37.27h.57l-.2.83h-1.37c-.42.03-.6-.2-.58-.68l.1-2.94h1.16l-.02.64h.3c.13 0 .2-.07.25-.23l.08-.37h.97l-.13.6zm-.73-.9H22.5l-.6 2.8c-.07.18-.03.26.13.24h.5l-.17.82h-1.27c-.48-.02-.68-.2-.6-.57l1.7-7.8h4.6l-.84 3.85c-.1.45-.4.67-.9.67zm5.5 3.48l-.1.5h-1.35l.1-.5H26.5l.25-1.1h.27l1.24-5.7H28l.26-1.2h4.25l-.25 1.2h-.27l-1.24 5.7H31l-.24 1.1h-.26zm5.68-4.8h-1.34l-.23 1.03h1.36l-.24 1.1h-1.5l-.32.64h.73l.17 1.3c0 .12.1.18.27.18h.23l-.22 1.02h-.8c-.44 0-.67-.16-.67-.5l-.2-1.16-.65 1.25c-.15.3-.4.46-.7.43H30.8l.22-1.02h.38c.15.05.28-.05.4-.25l1.03-1.9H31.5l.24-1.08h1.46l.22-1.02h-1.46l.24-1.1h4.2l-.22 1.1zm.3-2.03c-.2.46-.54.66-1 .62h-.82l.22-1.02h.3c.14 0 .24-.08.32-.23l.33-.6h1.23l-.58 1.24zm1.45-2.72H36.8l.77-1.36-.63-3.74h1.2l.27 2.58 1.43-2.58h1.1l-3 5.1zm-9.57 8.47h1.04l.26-1.17h-1.04l-.26 1.17zm-5.28-5.13h2l.16-.76h-2l-.16.76zm5.78 2.86h1.03l.25-1.17h-1.03L28.86 19z" style="mix-blend-mode:multiply"/></svg>