<svg xmlns="http://www.w3.org/2000/svg" viewBox="0 0 31 31" enable-background="new 0 0 31 31"><style type="text/css">.st0{fill:#676766;} .st1{fill:#FFFFFF;}</style><path d="M28.1 30.9H2.9c-1.6 0-2.8-1.3-2.8-2.8V2.8C0 1.3 1.3 0 2.9 0h25.2c1.6 0 2.8 1.3 2.8 2.8V28c0 1.6-1.2 2.9-2.8 2.9z" class="st0"/><path d="M22.4 15.8c-1.1-.2-.6-.8-.6-.8s1.1-1.7-.2-3c-1.6-1.6-5.4.2-5.4.2-1.5.5-1.1-.2-.9-1.3 0-1.3-.5-3.6-4.3-2.2-3.9 1.3-7.2 6-7.2 6-2.3 3.1-2 5.5-2 5.5.6 5.3 6.2 6.7 10.5 7.1 4.6.4 10.8-1.6 12.7-5.6 1.9-4.1-1.5-5.7-2.6-5.9zm-9.7 9.9c-4.6.2-8.2-2.1-8.2-5.1 0-3 3.7-5.5 8.2-5.7 4.6-.2 8.2 1.7 8.2 4.7s-3.6 5.9-8.2 6.1zM11.8 16.9c-4.6.5-4.1 4.8-4.1 4.8s0 1.4 1.2 2.1c2.7 1.5 5.4.6 6.8-1.2 1.5-1.9.7-6.3-3.9-5.7zm-1.2 6c-.9.1-1.5-.4-1.5-1.1 0-.7.6-1.5 1.5-1.5 1-.1 1.6.5 1.6 1.2 0 .6-.7 1.3-1.6 1.4zm2.7-2.3c-.3.2-.6.2-.8-.1-.2-.3-.1-.7.2-.9.3-.3.7-.2.8.1.2.3.1.7-.2.9zM29 13.4c0-.1 0-.2 0-.3.1-.4.1-.8.1-1.2 0-4.5-3.7-8.2-8.2-8.2-.6 0-1.1.5-1.1 1.1 0 .7.5 1.2 1.2 1.2 3.3 0 5.9 2.7 5.9 5.9 0 .4 0 .7-.1 1.1 0 0 0 .1 0 .1 0 .6.5 1.1 1.1 1.1.6 0 1-.3 1.1-.8zM25.5 12.3c0-.1 0-.3 0-.4 0-2.5-2-4.5-4.5-4.5-.5 0-.9.4-.9.9s.4.9.9.9c1.5 0 2.7 1.2 2.7 2.7 0 .1 0 .2 0 .3 0 0 0 .1 0 .1 0 .5.4.9.9.9s.9-.4.9-.8c0 .1 0 0 0-.1 0 .1 0 .1 0 0z" class="st1"/></svg>