<svg xmlns="http://www.w3.org/2000/svg" viewBox="0 0 31 31"><style>.st0{fill:#676766}.st1{fill:#fff}</style><path d="M.1 0H31v30.9H.1z" class="st0"/><path d="M6.5 11.2H4.4c-.1.2-.2.4-.3.7-.1.3-.3.5-.4.8-.1.3-.3.6-.4.9-.1.3-.3.6-.4.8-.1.3-.2.5-.3.7-.1.2-.2.4-.2.5 0 .1-.1.2-.2.2-.1.2-.2.3-.3.3-.1.1-.1.1-.2.1h-.2c-.1 0-.2 0-.2-.1-.1 0-.1-.1-.1-.2v-.2c0-.1.1-.1.1-.2l2-4.3H3c-.2 0-.4 0-.4-.1-.1-.1-.1-.1-.1-.2s0-.2.1-.3c.1-.1.2-.1.4-.1h.7c.3-.5.5-1 .8-1.4.3-.4.5-.6.8-.9.3-.2.5-.4.8-.4.3-.1.5-.1.7-.1.1 0 .2 0 .3.1.1 0 .2.1.3.2.1.1.1.2.2.3 0 .1.1.3.1.5s0 .3-.1.6c0 .1 0 .1-.1.1l-.1.1H7c-.1 0-.1-.1-.1-.2v-.2c0-.2 0-.3-.1-.3-.1-.2-.2-.2-.3-.2-.1 0-.3.1-.4.2-.1 0-.3.2-.5.3-.1.2-.3.4-.4.6-.2.2-.3.4-.4.7h2c.1 0 .1.1.2.1 0 0 .1.1.1.2v.1s0 .1-.1.1c0 0-.1.1-.2.1-.1.1-.2.1-.3.1zM11.7 12.9l-.3.3-.4.4c-.1.1-.3.3-.5.4-.2.1-.3.3-.5.4-.2.1-.3.2-.5.3-.2.1-.3.1-.5.1-.1 0-.3 0-.3-.1-.1-.1-.2-.1-.2-.2-.1-.1-.1-.2-.1-.3V13.6c0-.1 0-.2.1-.2-.1.2-.3.3-.4.5l-.5.5c-.2.1-.4.3-.6.3-.2.1-.4.1-.6.1-.1 0-.2 0-.4-.1-.1 0-.3-.1-.4-.2-.1-.1-.2-.2-.3-.4-.1-.1-.1-.3-.1-.5s0-.3.1-.6c0-.2.1-.5.2-.7.1-.2.2-.5.4-.7.2-.2.3-.4.5-.6.2-.2.4-.3.7-.4.3-.1.6-.2.9-.2.2 0 .3 0 .4.1.1 0 .2.1.3.1.2 0 .3 0 .3.1.1 0 .1-.1.2-.1s.1-.1.2-.1h.2c.1 0 .3 0 .4.1.1.1.1.2.1.3v.1c0 .1 0 .2-.1.3 0 .1-.1.2-.1.4-.1.1-.1.3-.2.4-.1.1-.1.3-.1.4 0 .1-.1.3-.1.4v.3c0 .1 0 .2.1.3 0 .1.1.1.2.1s.1 0 .2-.1c.1 0 .2-.1.3-.1.1-.1.2-.1.3-.2.1-.1.2-.2.3-.2l.7-.7c.1-.1.1-.1.2-.1s.1 0 .2.1.1.2.1.3c-.2.1-.3.2-.4.3zm-4-1.5c-.2 0-.4 0-.5.1-.2.1-.3.2-.5.4-.1.2-.2.3-.3.5s-.1.4-.1.6v.2c0 .1 0 .2.1.2 0 .1.1.1.1.2.1 0 .1.1.3.1.1 0 .2 0 .3-.1.1-.1.2-.2.4-.3l.4-.4c.1-.1.2-.3.3-.4.1-.1.2-.3.2-.4.1-.1.1-.2.1-.2 0-.1 0-.1-.1-.2l-.2-.2c-.1 0-.2-.1-.2-.1h-.3zM13 14.3c0-.2 0-.4.1-.6l.3-.6c.1-.2.3-.4.4-.6.2-.2.3-.4.4-.6 0-.1.1-.1.1-.2v-.2c0-.1 0-.1-.1-.2s-.1-.1-.2-.1c-.2 0-.3 0-.5.1-.1.1-.3.2-.4.3-.1.1-.3.2-.4.4-.1.1-.2.3-.3.4-.1.2-.2.3-.3.5-.1.2-.2.3-.3.4-.1.1-.1.3-.2.4-.1.2-.1.3-.2.4-.1.1-.1.2-.2.3-.1.1-.2.1-.3.1-.1 0-.2 0-.3-.1-.1-.1-.1-.2-.1-.3 0-.1 0-.2.1-.3.1-.1.1-.3.2-.5l.3-.6c.1-.2.2-.4.3-.7l.3-.6c.1-.2.2-.4.2-.5.1-.2.2-.3.3-.4.1-.1.2-.1.3-.1.1 0 .2 0 .3.1.1.1.1.2.1.3 0 .1 0 .2-.1.3l.3-.3c.1-.1.3-.2.4-.3.1-.1.3-.2.5-.2.2-.1.4-.1.6-.1h.3c.1 0 .2.1.3.1l.2.2c0 .1.1.2.1.3l.3-.3c.1-.1.2-.2.3-.2.1-.1.3-.1.4-.2.1 0 .3-.1.5-.1h.4c.1 0 .2.1.3.1.1.1.2.1.2.2.1.5.1.7.1.8 0 .2-.1.5-.2.7-.1.2-.2.4-.4.6 0 .1-.1.1-.2.2s-.2.2-.2.3c-.1.1-.1.2-.2.3-.1.1-.1.2-.1.3 0 .1 0 .1.1.2h.2c.2 0 .3 0 .5-.1s.4-.2.6-.4c.2-.1.3-.3.5-.4.2-.1.3-.3.4-.4 0 0 .1 0 .1-.1h.1c.1 0 .1 0 .2.1s.1.1.1.2 0 .2-.1.3c0 .1-.1.2-.2.3l-.6.6c-.2.2-.4.3-.7.5-.2.1-.4.3-.7.3-.2.1-.4.1-.7.1-.3 0-.5-.1-.7-.2-.2-.1-.3-.4-.3-.6 0-.2 0-.4.1-.5.1-.2.2-.3.3-.5.1-.2.2-.3.3-.5.1-.1.2-.3.3-.4 0-.1.1-.1.1-.2v-.2c0-.1 0-.1-.1-.2 0 0-.1-.1-.2-.1-.2 0-.3 0-.5.1-.1.1-.3.2-.4.3-.1.1-.3.2-.4.4-.1.1-.2.3-.3.4-.1.2-.2.3-.3.5-.1.2-.2.3-.3.4-.1.1-.1.3-.2.4-.1.2-.1.3-.2.4-.1.1-.1.2-.2.3-.1.1-.2.1-.3.1H13c-.1 0-.1 0-.1-.1l-.1-.1c.2 0 .2 0 .2-.1zM19.5 10.8c.1-.1.1-.2.2-.2s.2-.1.3-.1c.1 0 .3 0 .4.1.1.1.2.2.2.4v.2c-.1.1-.1.2-.1.3 0 .1-.1.1-.1.2s-.1.1-.1.2-.1.1-.1.2-.1.2-.2.3c-.1.1-.1.2-.2.4-.1.1-.1.2-.1.4 0 .1-.1.2-.1.3 0 .1 0 .2.1.2h.2c.1 0 .2 0 .3-.1.1 0 .2-.1.4-.2.1-.1.2-.2.4-.3l.3-.3.3-.3.2-.2c.1-.1.2-.1.2-.1.1 0 .1 0 .2.1 0 .1.1.1.1.2s0 .2-.1.3c0 .1-.1.2-.2.3l-.6.6c-.2.2-.4.3-.6.5-.2.1-.4.3-.6.3-.2.1-.4.1-.7.1-.3 0-.6-.1-.7-.2-.2-.2-.3-.4-.3-.8 0-.2 0-.4.1-.5.1-.2.1-.3.2-.5s.1-.3.2-.5c.1-.1.1-.3.2-.4 0-.1.1-.1.1-.2s.1-.2.2-.3c-.1-.1 0-.2 0-.4zm.7-1.3v-.3c0-.1.1-.2.1-.3l.2-.2c.1-.1.2-.1.4-.1s.4 0 .5.1c.1.1.1.2.1.3v.2c0 .1-.1.2-.1.2l-.2.2c-.1.1-.2.1-.3.1-.2 0-.4 0-.5-.1-.2.1-.2 0-.2-.1zM22.5 12.9c0 .1-.1.2-.1.3 0 .1-.1.2-.1.3v.1l.1.1c.1 0 .2 0 .3-.1.1 0 .3-.1.4-.2.1-.1.3-.2.4-.3.2-.1.3-.2.5-.3.2-.1.3-.2.4-.3.1-.1.3-.2.4-.3 0 0 .1 0 .1-.1h.1c.1 0 .1 0 .2.1s.1.1.1.2 0 .2-.1.3c-.1.1-.1.2-.3.3-.2.2-.5.4-.7.7-.3.2-.5.4-.8.5-.2.2-.5.3-.7.4-.2.1-.5.1-.7.1-.2 0-.3 0-.4-.1-.1 0-.2-.1-.3-.2-.1-.1-.1-.2-.1-.3v-.3c0-.2 0-.4.1-.6.1-.2.1-.4.2-.5.1-.3.3-.6.4-.9.1-.3.3-.6.4-.8l1.8-3.7c.1-.2.2-.3.3-.3.1-.1.2-.1.4-.1.1 0 .2 0 .3.1.1.1.1.2.1.3v.2c0 .1-.1.2-.1.2-.1.2-.2.4-.3.7-.1.3-.3.5-.4.9-.2.3-.3.6-.5 1-.2.3-.3.7-.5 1-.2.3-.3.6-.4.9-.3.2-.4.4-.5.7zM28.1 10.9c.1-.1.2-.1.3-.2.1 0 .1-.1.2-.1h.2c.1 0 .1 0 .2.1 0 .1.1.1.1.2v.2l-1.3 2.7c.2-.1.4-.3.6-.4.2-.1.5-.3.7-.4l.6-.3c.2-.1.3-.1.3-.1.1 0 .2 0 .3.1.1.1.1.2.1.3 0 .1 0 .2-.1.3-.1.1-.2.2-.4.3-.3.1-.5.3-.7.4-.2.1-.4.2-.5.3-.2.1-.3.2-.4.2-.1.1-.2.1-.3.2-.1.1-.2.2-.3.2l-.3.3c-.1.2-.2.5-.3.7-.1.2-.2.4-.2.6-.1.2-.1.3-.2.4 0 .1-.1.2-.1.2-.3.7-.7 1-1 1-.2 0-.3-.1-.4-.2-.1-.1-.1-.2-.1-.4s0-.3.1-.5c0-.2.1-.3.2-.5s.2-.4.4-.6c.2-.2.4-.5.6-.8l1.2-2.4c-.6.7-1.1 1.2-1.6 1.6-.5.4-.9.5-1.3.5-.1 0-.2 0-.3-.1-.4-.2-.4-.3-.4-.4 0-.2 0-.4.1-.7.1-.1.1-.3.2-.4.1-.1.1-.2.2-.3.1-.1.1-.2.2-.4.1-.1.1-.3.2-.4.1-.2.2-.3.2-.6.1-.2.2-.5.3-.7.1-.2.2-.3.3-.3.1-.1.2-.1.4-.1.1 0 .2 0 .3.1.1.1.1.1.1.2v.1L25.4 13c-.1.1-.1.2-.1.3 0 .1 0 .1.1.1 0 0 .1 0 .2-.1.1 0 .1-.1.2-.1l2.3-2.3zM8.4 23.1c-.3.4-.7.7-1 .9-.4.2-.8.3-1.2.3-.2 0-.4 0-.6-.1-.2-.1-.3-.2-.4-.3-.1-.1-.2-.3-.2-.4 0-.2-.1-.3-.1-.5s0-.4.1-.6c0-.2.1-.4.2-.6.1-.1.1-.2.1-.3 0-.1.1-.2.1-.2 0-.1 0-.1.1-.2 0 0 0-.1.1-.1 0 0 0-.1.1-.2 0-.1.1-.1.1-.2l1.7-3.8c0-.1.1-.1.1-.1s.1-.1.2-.1.1-.1.2-.1h.2c.2 0 .3 0 .4.1.1.1.1.2.1.3 0 .1 0 .2-.1.3 0 .1-.1.2-.1.3-.3.5-.6 1.1-.8 1.7-.4.3-.7.8-1 1.4.1-.1.3-.2.4-.3.1-.1.3-.2.4-.2.2-.1.3-.2.5-.2s.3-.1.5-.1c.1 0 .2 0 .4.1.1 0 .2.1.3.2.1.1.2.2.2.3.1.1.1.3.1.4v.2c0 .1-.1.2-.1.4 0 .1-.1.3-.2.4-.1.2-.1.3-.2.4l.1.1h.1c.2 0 .4 0 .5-.1.2 0 .3-.1.5-.2s.3-.1.4-.2c.1-.1.2-.1.3-.2 0-.1.1-.1.2-.1s.1 0 .2.1c0 .1.1.1.1.2s0 .2-.1.3c0 .1-.1.2-.2.3-.2.1-.3.2-.5.3-.2.1-.4.2-.5.2-.2.1-.4.1-.6.2s-.3.2-.5.2c-.1 0-.2 0-.3-.1-.1.1-.2 0-.3-.1zm-.5-2.3c-.2 0-.4.1-.7.2-.2.1-.4.2-.6.4-.2.2-.3.4-.4.6-.1.2-.2.4-.2.7v.2c0 .1 0 .1.1.2 0 .1.1.1.2.1s.2.1.3.1c.2 0 .4-.1.7-.2.2-.1.4-.2.6-.4.1-.3.2-.5.3-.7.1-.2.2-.4.2-.7v-.2c0-.1 0-.1-.1-.2 0-.1-.1-.1-.1-.1h-.3zM11.2 22.4c0 .1-.1.2-.1.3 0 .1-.1.2-.1.3v.1l.1.1c.1 0 .2 0 .3-.1.1 0 .3-.1.4-.2.1-.1.3-.2.4-.3.2-.1.3-.2.5-.3.2-.1.3-.2.4-.3.1-.1.3-.2.4-.3 0 0 .1 0 .1-.1h.1c.1 0 .1 0 .2.1s.1.1.1.2 0 .2-.1.3c-.1.1-.1.2-.3.3-.2.2-.5.4-.7.7-.3.2-.5.4-.8.5-.1.1-.3.3-.6.3-.2.1-.5.1-.7.1-.2 0-.3 0-.4-.1-.1 0-.2-.1-.3-.2-.1-.1-.1-.2-.1-.3v-.3c0-.2 0-.4.1-.6.1-.2.1-.4.2-.5.1-.3.3-.6.4-.9.1-.3.3-.6.4-.8l1.8-3.7c.1-.2.2-.3.3-.3.1-.1.2-.1.4-.1.1 0 .2 0 .3.1.1.1.1.2.1.3v.2c0 .1-.1.2-.1.2-.1.2-.2.4-.3.7-.1.3-.3.5-.4.9-.2.3-.3.6-.5 1-.2.3-.3.7-.5 1-.2.3-.3.6-.4.9-.3.3-.5.6-.6.8zM15.9 19.8c.1 0 .3 0 .5.1.2 0 .3.1.5.2.1.1.3.2.4.4.1.2.1.3.1.6v.4c0 .1-.1.3-.1.5l.1.1h.2c.1 0 .2 0 .3-.1.1 0 .2-.1.3-.2.1-.1.2-.2.3-.2l.3-.3.3-.3c.1-.1.1-.2.2-.2h.1c.1 0 .1 0 .1.1s.1.1.1.2 0 .2-.1.3c-.1.1-.2.3-.3.4l-.3.3c-.1.1-.2.3-.4.4-.1.1-.3.2-.4.3-.1.1-.3.1-.4.1h-.3c-.1 0-.2-.1-.3-.2-.1.2-.3.4-.5.6-.2.2-.4.3-.6.5-.2.1-.5.2-.7.3-.3.1-.5.1-.8.1-.1 0-.2 0-.4-.1-.1 0-.3-.1-.4-.2-.1-.1-.2-.2-.3-.4-.1-.2-.1-.4-.1-.6 0-.2 0-.3.1-.6.1-.2.1-.4.2-.7.1-.2.2-.5.4-.7.2-.2.3-.4.6-.6.2-.2.5-.3.7-.4-.1 0 .2-.1.6-.1zm-.3 1c-.2 0-.4 0-.5.1-.2.1-.3.2-.4.4-.1.1-.2.3-.3.5-.1.2-.1.4-.1.6v.2c0 .1 0 .2.1.2 0 .1.1.1.2.2s.2.1.3.1c.2 0 .4 0 .5-.1.2-.1.3-.2.5-.4.1-.2.2-.3.3-.5.1-.2.1-.4.1-.6v-.2c0-.1 0-.2-.1-.2 0-.1-.1-.1-.2-.2-.2 0-.3-.1-.4-.1zM21 19.8c.2 0 .3 0 .4.1.1 0 .2.1.3.1.1.1.2.1.3.2.1 0 .1-.1.2-.1s.1-.1.2-.1h.2c.2 0 .3 0 .4.1.1.1.1.2.1.2v.2l-1.4 2.6.1-.1c.5-.3.8-.5 1.1-.6.3-.2.5-.3.7-.3.2-.1.3-.1.4-.1h.1c.1 0 .2 0 .2.1s.1.2.1.3c0 .1 0 .2-.1.3-.1.1-.2.2-.3.2l-.6.3c-.2.1-.5.2-.7.3-.3.1-.5.3-.8.4-.3.2-.5.3-.7.5l-1.1 2c-.1.2-.2.4-.3.5-.1.1-.2.2-.2.3l-.2.2h-.3c-.2 0-.3-.1-.4-.2-.1-.1-.1-.2-.1-.4s0-.3.1-.5.2-.4.3-.7c.1-.2.3-.5.5-.7.2-.3.4-.5.6-.8l.7-.9c-.1.1-.3.3-.4.3-.1.1-.3.2-.4.2-.1.1-.3.1-.4.1h-.3c-.2 0-.3 0-.4-.1l-.3-.3c-.1-.1-.2-.3-.2-.5-.1-.2-.1-.4-.1-.6 0-.4.1-.8.2-1.2l.6-.9c.3-.2.5-.4.9-.6.4.3.7.2 1 .2zm-.3 1c-.2 0-.4 0-.5.1-.2.1-.3.2-.5.4-.1.1-.2.3-.3.5-.1.2-.1.4-.1.6v.2c0 .1 0 .1.1.2 0 .1.1.1.1.2.1 0 .2.1.3.1.1 0 .2 0 .3-.1l.3-.3c.1-.1.2-.2.3-.4.1-.1.2-.3.3-.4.1-.1.2-.2.2-.3.1-.1.1-.2.1-.2 0-.1 0-.2-.1-.2 0-.1-.1-.1-.2-.2-.1 0-.1-.1-.2-.1.1 0 0-.1-.1-.1zM25.4 20.8c.2.1.4.3.6.4l.5.5c.1.2.2.4.3.5.1.2.1.4.1.5 0 .2-.1.4-.2.6-.1.2-.3.3-.5.4-.2.1-.4.2-.7.3-.3.1-.5.1-.8.1-.2 0-.4 0-.6-.1-.2 0-.4-.1-.5-.2-.2-.1-.3-.2-.4-.4-.1 0-.2-.2-.2-.4v-.1c0-.1 0-.2.1-.3.1-.1.2-.1.2-.1h.1c.1 0 .1.1.1.1.1.1.1.2.2.2.1.1.2.1.3.2.1.1.2.1.4.1h.8c.1 0 .2-.1.3-.1.1-.1.2-.1.2-.2.1-.1.1-.2.1-.3 0-.2 0-.4-.1-.5-.1-.2-.2-.3-.3-.5-.1-.1-.3-.3-.5-.4-.2-.1-.4-.2-.5-.4l-.1-.1c0-.1-.1-.1-.1-.2v-.1c.1-.1.1-.2.2-.2.1-.1.2-.2.3-.2.1-.1.2-.1.3-.2.1 0 .2-.1.3-.1h.2c.1 0 .1.1.2.1s.1.1.1.1v.3c0 .1-.1.1-.1.1s-.1.1-.2.1c0 .4 0 .4-.1.5z" class="st1"/></svg>