<svg xmlns="http://www.w3.org/2000/svg" width="28" height="29"><title>B817EE5E-8E9B-4353-B225-9FCBF1286E58</title><desc>Created with sketchtool.</desc><g fill="none"><g fill="#666"><g><path d="M17.36 12.4c0-2.56-1.34-4.1-3.6-4.1-2.96 0-6.13 2.95-6.13 7.72 0 2.66 1.32 4.18 3.64 4.18 3.6 0 6.1-4.1 6.1-7.8zm10.07 2.17c0 5.55-3.97 7.64-7.36 7.75-.23 0-.32.02-.57.02-1.1 0-1.98-.32-2.54-.95-.33-.4-.53-.9-.58-1.5-1.1 1.4-3.04 2.76-5.45 2.76-3.84 0-6.04-2.37-6.04-6.52 0-5.7 3.94-10.32 8.76-10.32 2.1 0 3.77.9 4.66 2.4l.04-.33.2-1c0-.15.14-.33.26-.33h2.1c.1 0 .2.13.24.2.05.05.07.2.05.28l-2.13 10.97c-.07.34-.1.6-.1.85 0 .97.3 1.17 1.03 1.17 1.2-.04 5.14-.54 5.14-5.47 0-6.95-4.48-11.43-11.43-11.43-6.3 0-11.4 5.13-11.4 11.43S7.4 26 13.7 26c2.64 0 5.2-.9 7.25-2.57.25-.22.6-.18.8.07l.73.87c.1.13.15.27.13.43 0 .15-.08.3-.2.4-2.44 1.98-5.52 3.1-8.7 3.1C6.17 28.3 0 22.1 0 14.56 0 7.02 6.16.87 13.7.87c8.2 0 13.73 5.5 13.73 13.7z"/></g></g></g></svg>