<svg xmlns="http://www.w3.org/2000/svg" width="28" height="29"><title>60C88721-0FBE-4DF9-B4A7-F6C41511DD72</title><desc>Created with sketchtool.</desc><g fill="none"><g fill="#666"><g><path d="M15.7 20v2.86c0 .32-.24.57-.56.57H12.3c-.34 0-.6-.25-.6-.57V20c0-.32.26-.57.6-.57h2.84c.32 0 .57.25.57.57zm4.6-8.86c0 2.54-1.78 3.54-3.1 4.27-.9.55-1.5.9-1.5 1.46v.57c0 .32-.24.57-.56.57H12.3c-.34 0-.6-.25-.6-.57V16.2c0-2.18 1.6-2.88 2.85-3.45 1.08-.5 1.74-.84 1.74-1.64 0-1.03-1.32-1.8-2.5-1.8-.62 0-1.28.2-1.7.5-.4.25-.76.65-1.42 1.47-.1.14-.27.2-.45.2-.12 0-.25-.02-.34-.1L7.95 9.9c-.23-.17-.28-.5-.12-.76 1.46-2.3 3.52-3.43 6.23-3.43 2.93 0 6.22 2.34 6.22 5.44zm-6.6-8c-6.3 0-11.4 5.13-11.4 11.43S7.4 26 13.7 26c6.32 0 11.44-5.13 11.44-11.43S20.02 3.14 13.7 3.14zm13.73 11.43c0 7.57-6.14 13.72-13.72 13.72C6.15 28.3 0 22.13 0 14.56S6.14.87 13.7.87c7.6 0 13.73 6.13 13.73 13.7z"/></g></g></g></svg>