<svg xmlns="http://www.w3.org/2000/svg" viewBox="0 0 77.92 29.23"><defs><style>.cls-1{fill:#666}</style></defs><g id="Layer_2"><g id="Ebene_1"><path d="M4.35 14.1h-.5v2h.52c1.1 0 1.25-.76 1.25-1.07 0-.43-.35-.93-1.27-.93zm5.27-.1c-.57 0-1 .36-1 1.2s.42 1.2 1 1.2 1-.43 1-1.2-.44-1.2-1-1.2zM19.36 4.47C13.26 1.1 6.32-.88 4 .37 1.43 1.83 0 9 0 14.6s1.35 12.73 4 14.2c2.44 1.35 9.08-.63 15.32-4.07 5.37-3 10.25-7.36 10.25-10.13s-4.93-7.22-10.2-10.13zm-10.3 2.2a2.7 2.7 0 0 1 .5-.5 2.7 2.7 0 0 1 .52.5.08.08 0 0 1 0 .1 2.8 2.8 0 0 1-.48.5h-.14a2.8 2.8 0 0 1-.48-.5.08.08 0 0 1 .08-.1zM11.5 11a.2.2 0 0 1 .2.2v.47c0 .12 0 .18-.15.18H7.7c-.1 0-.16-.05-.16-.18v-.47a.2.2 0 0 1 .2-.2zM9.22 7.87a.15.15 0 0 1 0-.1.1.1 0 0 1 .07 0h.58a.1.1 0 0 1 .07 0 .16.16 0 0 1 0 .1v2.52s0 .1-.1.1h-.5c-.1 0-.1-.1-.1-.1s-.03-2.23-.03-2.53zm-4.87 9.5h-.5v2.05h-.04a3.65 3.65 0 0 1-.94-.65 1 1 0 0 1-.25-.65V13.1a.14.14 0 0 1 .1-.1h1.67a2.2 2.2 0 0 1 2.48 2.25c0 1.23-.94 2.1-2.5 2.1zm3-9.22L7.72 8l.47-.12h.07A.25.25 0 0 1 8.5 8a7 7 0 0 1 .37 1 .08.08 0 0 1 0 .07.08.08 0 0 1-.06 0h-.4c-.07 0-.1 0-.1-.06a3.8 3.8 0 0 0-.22-.55.08.08 0 0 0-.08.05l-.2.07a.17.17 0 0 0-.1.2s.44 1.2.56 1.6a.12.12 0 0 1 0 .1.1.1 0 0 1-.08 0h-.55a.1.1 0 0 1-.12-.08l-.07-.22C7.28 9.8 7 9.1 7 8.92s-.12-.6.3-.77zm2.3 9.3a2.12 2.12 0 0 1-2.27-2.3 2.1 2.1 0 0 1 2.28-2.27 2.1 2.1 0 0 1 2.28 2.28 2.12 2.12 0 0 1-2.32 2.28zM12.3 8.9c-.06.2-.3.88-.46 1.3l-.08.2a.1.1 0 0 1-.12.07h-.5a.1.1 0 0 1-.1 0 .12.12 0 0 1 0-.1c.14-.4.56-1.58.56-1.6a.17.17 0 0 0-.08-.2l-.2-.07a.08.08 0 0 0-.08 0 3.84 3.84 0 0 0-.2.56s0 .05-.1.05h-.4a.08.08 0 0 1-.07 0 .08.08 0 0 1 0-.07 6.92 6.92 0 0 1 .37-1 .25.25 0 0 1 .16-.2l.47.12.4.14c.47.17.46.47.37.78zm1.7 8.52a5.65 5.65 0 0 1-1.54-.26.14.14 0 0 1-.1-.14v-.86a.05.05 0 0 1 .05-.05 7.58 7.58 0 0 0 1.67.3.7.7 0 0 0 .53-.13.3.3 0 0 0 .1-.22c0-.28-.36-.36-.7-.44h-.14c-.75-.18-1.55-.36-1.55-1.33a1.23 1.23 0 0 1 .53-1 2.36 2.36 0 0 1 1.4-.37 5.12 5.12 0 0 1 1.35.24.15.15 0 0 1 .1.14v.87a.05.05 0 0 1-.07 0 4.5 4.5 0 0 0-1.52-.3c-.3 0-.5.14-.5.34s.28.32.66.4l.3.07a2.58 2.58 0 0 1 .88.3 1.15 1.15 0 0 1 .53 1c0 .96-.67 1.47-1.95 1.47zm5-.3a.14.14 0 0 1-.07.13 2 2 0 0 1-.9.16c-.76 0-1.46-.38-1.46-1.6V13a1 1 0 0 1 .25-.65 3.66 3.66 0 0 1 .95-.65h.05v1.14h1a.14.14 0 0 1 .14.14v.83H17.9v1.62c0 .62.22.8.62.8a3 3 0 0 0 .5-.1zm4.83.2H22.7V14.7c0-.6-.2-.84-.67-.84a1.2 1.2 0 0 0-.57.17l-.4.24a.08.08 0 0 0 0 .06v3H19.8V13.1a.13.13 0 0 1 .1-.1H21v.33a2.15 2.15 0 0 1 .47-.27 2.56 2.56 0 0 1 .87-.18c1 0 1.46.55 1.46 1.6v2.83l.06.04zm2.16 0h-1.15v-6.5a3.7 3.7 0 0 1 .94.65 1 1 0 0 1 .24.63v5.2H26zm10.16-7.1H33a.27.27 0 0 0-.27.26v9.85a1.9 1.9 0 0 0 .48 1.26 7 7 0 0 0 1.8 1.26c.07 0 .1 0 .1-.1v-4a.08.08 0 0 1 .08-.07h.94c3 0 4.83-1.7 4.83-4.16s-1.64-4.3-4.8-4.3zm0 6.27h-1a.08.08 0 0 1-.08-.07v-3.9a.08.08 0 0 1 .08-.1h.94c1.78 0 2.45 1 2.45 2 .02.57-.27 2.1-2.4 2.1zm10.1-6.43a4 4 0 0 0-4.4 4.4 4.08 4.08 0 0 0 4.4 4.4 4.08 4.08 0 0 0 4.4-4.4 4.05 4.05 0 0 0-4.4-4.4zm0 6.7c-1.1 0-1.9-.82-1.9-2.3s.8-2.3 1.9-2.3 1.9.7 1.9 2.3-.8 2.3-1.9 2.3zm31.18-9.4a7.14 7.14 0 0 0-1.8-1.25c-.06 0-.07 0-.07.06v12.46a.05.05 0 0 0 .05.05h2.25a.05.05 0 0 0 .05-.06V8.6a1.86 1.86 0 0 0-.48-1.24zm-20 6.73a5 5 0 0 0-1.7-.6l-.57-.12c-.72-.16-1.28-.3-1.28-.75s.38-.66 1-.66a8.67 8.67 0 0 1 3 .58.1.1 0 0 0 .13-.1V10.8a.28.28 0 0 0-.2-.27 9.88 9.88 0 0 0-2.6-.46 4.55 4.55 0 0 0-2.7.73 2.38 2.38 0 0 0-1 2c0 1.87 1.53 2.22 3 2.57l.27.06c.66.14 1.35.3 1.35.84a.57.57 0 0 1-.18.42 1.36 1.36 0 0 1-1 .25 14.6 14.6 0 0 1-3.2-.6.1.1 0 0 0-.1.1v1.66a.28.28 0 0 0 .2.27 10.9 10.9 0 0 0 3 .5c2.5 0 3.8-1 3.8-2.76a2.22 2.22 0 0 0-1.23-2zm13.5-4a4.94 4.94 0 0 0-1.67.35 4.15 4.15 0 0 0-.9.5l-.07.05a.07.07 0 0 1-.07-.07v-.64a.05.05 0 0 0-.05-.06h-2.1a.24.24 0 0 0-.24.24v8.13a.05.05 0 0 0 .05.06h2.24a.05.05 0 0 0 .05-.05v-5.7a.16.16 0 0 1 .05-.12l.8-.47a2.32 2.32 0 0 1 1.08-.3c.9 0 1.28.48 1.28 1.6v5.06a.05.05 0 0 0 .06.05h2.24a.05.05 0 0 0 .05-.04v-5.5c0-2-.97-3.05-2.8-3.05zm-7.62 6.82c-.76 0-1.2-.36-1.2-1.55v-3.1a.08.08 0 0 1 .07-.1h2a.08.08 0 0 0 .07-.07v-1.6a.27.27 0 0 0-.27-.27h-1.8a.08.08 0 0 1-.08-.08V8c0-.07 0-.1-.1-.1a7.05 7.05 0 0 0-1.83 1.26 1.9 1.9 0 0 0-.5 1.26v5.4c0 2.36 1.37 3.1 2.83 3.1a3.82 3.82 0 0 0 1.74-.3.26.26 0 0 0 .14-.24v-1.6a.08.08 0 0 0-.07-.07 5.7 5.7 0 0 1-1 .22z" class="cls-1"/></g></g></svg>