<svg xmlns="http://www.w3.org/2000/svg" viewBox="0 0 71.5 20.5" enable-background="new 0 0 71.5 20.5"><style type="text/css">.st0{fill:#666666;} .st1{fill:#EEEEEE;}</style><title>Asset 1@1x</title><g id="Layer_2"><g id="Layer_1-2"><g id="Layer_1-2-2"><circle cx="10.3" cy="10.3" r="10.3" class="st0"/><path d="M4.6 12.6c-.9.4-1.7 1.1-2.3 1.9 0 0-.3-.2-.5-.1 0 0-.3.1 0 .2s.6.3.7.5c0 0 0 .1.2.1 0 0 .2-.1 0-.3 0 0-.2-.2-.2-.3.6-.8 1.5-1.5 2.4-1.9v-.1l-.2-.1-.1.1zM5.6 12.9c-.9.4-1.7 1.1-2.3 1.9 0 0-.3-.2-.5-.1 0 0-.3.1 0 .2s.6.3.7.5c0 0 0 .1.2.1 0 0 .2-.1 0-.3 0 0-.2-.2-.2-.3.6-.8 1.5-1.4 2.4-1.9l-.2-.1h-.1zM16.9 7.6s-1.9 2-2 3.9c0 0-.2 1.9 2.1 2.1 1.1.1 2-.8 2.1-1.9 0-.1 0-.2 0-.3-.3-1.5-1-2.8-2.2-3.8z" class="st1"/><path d="M17 7.9c-.4.8-.7 1.6-.8 2.5 0 .4.3.7.7.7h.1c.4 0 .8-.3.8-.7 0 0 0-.1 0-.1-.1-.9-.4-1.7-.8-2.4z" class="st0"/><path d="M12 9.5s2.4-.1 2.1-2c-.2-.9-1.1-1.5-2-1.3-.8.1-1.5.7-1.8 1.5 0 0-.9 2.8-2.1 2.5 0 0-.8-.2-.9-1.8 0-.1 0-.3.1-.4 0 0 .4-.9-.8-.7-1 .3-2 .2-2.8-.2l-.6-.3s-1-.7-.7.3c.2.6.7 1 1.2 1.3-.1.2-.3.4-.2.6 0 0 .1.4.7.3-.2.2-.1.4 0 .5h.1c.2.1.4.1.6.1.1.5.6.8 1.1.7-.8.9-2.2 1-3.2.2l-.1-.1s-.5-.7-.3.1c.5 1 1.4 1.7 2.5 1.8 1 1 2.5.9 3.5 0 .2-.2.4-.5.5-.7.4-.7 1-1.4 1.6-1.9.4-.3 1-.5 1.5-.5zM14 7l5.5.2-5.4.9" class="st1"/><circle cx="12.6" cy="7.4" r=".7" class="st0"/><path d="M12.2 6.8l.4.6-.7-.2c0-.2.1-.4.3-.4z" class="st1"/><path d="M27.9 14.8h-5.2L24.3 6h5.2l-.3 1.9h-2.9L26 9.2h2.6l-.3 1.9h-2.7l-.3 1.7h2.9l-.3 2zM31.4 11.3l-1.5-3.4h2.7l.7 1.9 1.4-1.9h2.7l-2.7 3.4 1.6 3.5h-2.7l-.8-2.1-1.5 2.1h-2.7l2.8-3.5zM41.2 14.9c-.3 0-.6-.1-.9-.2-.3-.1-.5-.4-.7-.6h-.1c0 .3 0 .6 0 .9l-.5 2.8h-2.4L38.3 8h1.9l.2.9h.1c.5-.6 1.2-1 2-1 .7 0 1.3.3 1.6.9.3.8.4 1.7.2 2.6-.1 1-.5 1.9-1.2 2.7-.4.5-1.2.8-1.9.8zm.1-5.2c-.3 0-.6.1-.8.4-.2.3-.4.7-.4 1.1v.2c-.1.4-.1.9 0 1.3.1.3.4.4.7.4.3 0 .6-.1.7-.4.2-.4.4-.8.4-1.3.1-.4.1-.9 0-1.3-.1-.3-.3-.5-.6-.4zM50.4 7.8c.2 0 .4 0 .6 0h.1l-.6 2.2c-.3-.1-.5-.1-.8-.1-.4 0-.8.1-1.2.4-.3.3-.5.6-.5 1l-.6 3.4H45l1.2-6.8H48l.2 1.1h.1c.3-.4.6-.7 1-.9.3-.2.7-.3 1.1-.3zM54.2 14.9c-.9.1-1.8-.2-2.5-.9-.6-.7-.7-1.7-.5-2.6.1-1 .6-2 1.3-2.7.7-.6 1.7-1 2.7-.9.8-.1 1.6.2 2.2.8.5.7.7 1.5.4 2.3l-.1 1.1h-4.2c-.1.3 0 .7.3.9.3.2.6.4 1 .3.4 0 .8 0 1.2-.1.4-.1.8-.2 1.2-.4l-.3 1.7c-.4.2-.8.3-1.2.4-.6.1-1.1.1-1.5.1zm.8-5.5c-.3 0-.5.1-.8.3-.2.2-.4.5-.5.8h2c.1-.3 0-.6-.1-.8-.1-.2-.4-.3-.6-.3zM64.2 12.7c-.1.7-.4 1.3-1 1.7-.7.4-1.5.6-2.2.6-.4 0-.9 0-1.3-.1s-.7-.2-1.1-.3l.3-1.9c.4.2.8.3 1.1.4.4.1.8.2 1.1.2.5 0 .8-.1.8-.4 0-.1 0-.3-.2-.3-.4-.2-.8-.4-1.2-.5-.5-.2-.9-.5-1.2-.9-.2-.4-.3-.8-.2-1.2.1-.6.5-1.2 1-1.5.9-.5 1.6-.7 2.4-.6.4 0 .8 0 1.2.1.4.1.8.2 1.2.4L64 9.9c-.3-.1-.7-.3-1-.4-.3-.1-.5-.1-.8-.1-.4 0-.6.1-.6.3 0 .1 0 .2.2.3.3.2.7.4 1.1.5.4.1.7.3 1 .6.2.2.3.4.4.7-.1.2-.1.6-.1.9zM70.8 12.7c-.1.7-.4 1.3-1 1.7-.7.4-1.5.6-2.2.6-.4 0-.9 0-1.3-.1s-.7-.2-1.1-.3l.3-1.9c.4.2.7.3 1.1.4.4.1.8.2 1.1.2.5 0 .8-.1.8-.4 0-.1 0-.3-.2-.3-.4-.2-.8-.4-1.2-.5-.5-.2-.9-.5-1.2-.9-.2-.4-.3-.8-.2-1.2.1-.6.5-1.2 1-1.5.7-.4 1.4-.6 2.2-.5.4 0 .8 0 1.2.1.4.1.8.2 1.2.4l-.7 1.5c-.3-.1-.6-.3-.9-.4-.3-.1-.5-.1-.8-.1-.4 0-.6.1-.6.3 0 .1 0 .2.2.3.3.2.7.4 1.1.5.4.1.7.3 1 .6.2.2.3.4.4.7-.1.2-.1.5-.2.8z" class="st0"/></g></g></g></svg>