<svg xmlns="http://www.w3.org/2000/svg" width="110mm" height="110mm" viewBox="0 0 110 110"><defs><marker orient="auto" overflow="visible"><path fill="#808080" fill-rule="evenodd" stroke="#000" stroke-width=".8pt" d="M10 0l4-4L0 0l14 4z"/></marker></defs><g><path fill="#666" d="M54.9 5.46a50 50 0 0 0-50 50 50 50 0 0 0 50 50 50 50 0 0 0 50-50 50 50 0 0 0-50-50zm0 10a40 40 0 0 1 40 40 40 40 0 0 1-40 40 40 40 0 0 1-40-40 40 40 0 0 1 40-40z"/><path fill="none" stroke="#666" stroke-width="10" d="M54.92 55.64V25.76" stroke-linecap="round"/><path fill="none" stroke="#666" stroke-width="10" d="M72.58 66.15l-17.66-10.5" stroke-linecap="round"/></g></svg>