<svg xmlns="http://www.w3.org/2000/svg" viewBox="0 0 48.8 25.2" enable-background="new 0 0 48.8 25.2"><style type="text/css">.st0{fill:#B2C67F;}</style><path d="M26.7 18.4c0 .1.1.2.2.2h.8v-3h-.9v2.8zM29.3 18.6h.8c.1 0 .2-.1.2-.2v-2.8h-.9v3zM26.7 11.5v2.3h.9v-2.5h-.8c-.1 0-.1.1-.1.2zM16.2 13.6h-3c-.1 0-.2 0-.2.1v1.6h3.2c.1 0 .1 0 .1-.1v-1.5s0-.1-.1-.1zM18.4 12.9v2.2c.4.1.8.2 1.2.3.4 0 .6-.1.6-.4.1-.1.1-1.3.1-3.4 0-.4-.1-.7-.2-.9-.1-.1-.2-.1-.4-.1h-6.2c-.2.3-.4.6-.6.9-.1.1-.2.2-.2.3H17c.9 0 1.4.4 1.4 1.1zM36 9.8c0-.1 0-.1-.1-.1h-1.4v7.6c.2 0 .5.1.6.1.4 0 .6-.2.7-.5.1-.2.1-.5.1-1 0-.6-.2-1.4-.6-2.2-.1-.2-.2-.4-.2-.6 0-.2 0-.3.1-.5.6-1 .8-1.9.8-2.8zM30.1 11.3h-.8v2.5h.9v-2.3c.1-.1 0-.2-.1-.2zM46 7.9C42.3 3.7 36.1.2 27.1.1h-5.4C12.7.2 6.5 3.6 2.8 7.9-.1 11.1-.8 15.5 1 19.2c1.5 3.4 6 5.9 13.9 5.9h18.8c8 0 12.4-2.5 13.9-5.9 2-3.7 1.3-8.1-1.6-11.3zM22.5 20.1c-.4.6-.9.9-1.7.9h-8.1c-1.2 0-1.8-.5-1.8-1.5v-6c-.2.1-.3.2-.5.2-.3 0-.6-.1-.9-.4-.2-.2-.3-.5-.3-.8 0-.2.1-.5.3-.6.7-.6 1.3-1.3 1.7-1.9.5-.7.9-1.5 1.3-2.5.2-.2.4-.3.6-.3.2 0 .5.1.7.3.3.2.5.5.5.7 0 .2 0 .4-.1.6h6c.8 0 1.4.1 1.6.4.3.3.4 1.1.4 2.2 0 2.5-.1 4-.3 4.5-.2.5-.5.8-.9 1-.4.2-.9.3-1.5.3-.8-.1-1.4-.2-1.7-.3-.2.1-.4.2-.7.2H13v1.6c0 .2.2.4.5.4H20c.3 0 .5-.1.5-.4.1-.2.2-.5.2-1 .1-.3.3-.5.6-.5.6 0 1 .1 1.2.3.2.2.3.4.3.7.1.8 0 1.4-.3 1.9zm9.5-1c0 .9-.4 1.3-1.3 1.3h-4.5c-.9 0-1.3-.4-1.3-1.3v-8.2c0-.9.4-1.3 1.3-1.3h1.2V8.5c0-.2.1-.5.3-.7.2-.1.4-.2.7-.2.4 0 .6.1.8.2.2.2.3.4.3.7v1.1h1.2c.9 0 1.3.4 1.3 1.3v8.2zm5.9-2.5c0 .9-.2 1.6-.5 2-.4.5-.9.8-1.7.8-.5 0-.9-.1-1.3-.2v1.2c0 .5-.4.7-.9.8-.6 0-.9-.3-.9-.8V8.9c0-.7.3-1 .8-1h3.4c.7 0 1.1.4 1.1 1.2 0 1-.3 2.3-.8 3.9.6 1.2.8 2.4.8 3.6z" class="st0"/></svg>