<svg xmlns="http://www.w3.org/2000/svg" viewBox="0 0 40 25"><defs><style>.cls-1{fill:#e46091;}.cls-2{fill:#fff;}</style></defs><title>Artboard 1</title><path d="M37.47 7.77C34.12 3.53 28.4.1 20.17 0h-.35c-8.2.1-13.94 3.53-17.3 7.77A10.8 10.8 0 0 0 .92 19.1C2.3 22.52 6.4 25 13.68 25h12.67c7.27 0 11.36-2.48 12.74-5.9a10.8 10.8 0 0 0-1.6-11.33z" class="cls-1"/><path d="M13.82 12.14a.83.83 0 0 1-.6-.18.82.82 0 0 1-.18-.6 1 1 0 0 1 .18-.7.78.78 0 0 1 .6-.2H15A5.24 5.24 0 0 0 14.5 9a.8.8 0 0 1 0-.76h-.2a.85.85 0 0 1-.6-.18.93.93 0 0 1-.18-.7.83.83 0 0 1 .2-.62.85.85 0 0 1 .58-.18h2.3a1 1 0 0 1-.12-.8.77.77 0 0 1 .4-.4.8.8 0 0 1 1.12.5l.16.35q.08.2.16.43H20a1 1 0 0 1 .66.2.78.78 0 0 1 .25.65.76.76 0 0 1-.17.56.87.87 0 0 1-.5.24.93.93 0 0 1 0 .68q-.1.45-.22.8a6.76 6.76 0 0 1-.27.72h.8q.76 0 .76.85t-.78.82H18.1v.94H20a1 1 0 0 1 .65.2.8.8 0 0 1 .25.64.75.75 0 0 1-.25.63 1 1 0 0 1-.65.2h-1.92v4.05a1.77 1.77 0 0 1-.24 1 1.07 1.07 0 0 1-.92.4 4 4 0 0 1-1.47-.2 1 1 0 0 1-.6-.43 1 1 0 0 1 0-.7q.24-.73 1-.44.36.14.45.08c.06 0 .1-.18.1-.42v-3.35h-2.1a1.1 1.1 0 0 1-.64-.17.7.7 0 0 1-.24-.62.84.84 0 0 1 .24-.68 1 1 0 0 1 .64-.2h2.18v-.94zm1.84 2.95c.5.2.6.6.32 1.23-.1.24-.2.44-.3.62s-.17.34-.26.5l-.3.44-.32.5a1.5 1.5 0 0 1-.66.57.7.7 0 0 1-.63-.18 1.54 1.54 0 0 1-.24-.27.54.54 0 0 1-.1-.27.68.68 0 0 1 .05-.33 2.9 2.9 0 0 1 .26-.45c.23-.36.42-.67.57-.94s.3-.54.42-.8a1.43 1.43 0 0 1 .54-.7.8.8 0 0 1 .67.03zm.8-5.14c0 .1 0 .2 0 .3v.2h1.62a1.4 1.4 0 0 1 .05-.24 1.9 1.9 0 0 1 .12-.28 6.73 6.73 0 0 0 .46-1.42.9.9 0 0 1 .1-.25h-3l.08.16.08.18q.15.38.26.7t.26.7zM20 18.53a.7.7 0 0 1-.6 0 1.36 1.36 0 0 1-.34-.75q-.12-.43-.24-.75c-.08-.2-.18-.45-.3-.72a1.3 1.3 0 0 1-.17-.74.92.92 0 0 1 .46-.5.58.58 0 0 1 .57-.06 1 1 0 0 1 .5.55l.4.93a5.07 5.07 0 0 1 .28.86 1.43 1.43 0 0 1 0 .77.74.74 0 0 1-.56.45zm3.3-8h3.8a.88.88 0 0 1 .67.2 1 1 0 0 1 .18.66 1 1 0 0 1-.18.66.88.88 0 0 1-.67.2h-.74v7.07a.86.86 0 0 1-.23.68 1 1 0 0 1-.65.2.92.92 0 0 1-.66-.2.94.94 0 0 1-.2-.67v-7.1h-1.36q0 1.55-.1 2.62A16.66 16.66 0 0 1 23 16.7a8.1 8.1 0 0 1-.36 1.37 12.72 12.72 0 0 1-.53 1.22q-.47 1-1.32.57a.8.8 0 0 1-.45-.56 1.43 1.43 0 0 1 .2-.85A8.92 8.92 0 0 0 21 17.3a7.68 7.68 0 0 0 .3-1.3q.1-.73.16-1.7t.05-2.3V8.48a4.06 4.06 0 0 1 .08-.77 1 1 0 0 1 .24-.5 1.16 1.16 0 0 1 .52-.3 5.42 5.42 0 0 1 .87-.17l.8-.15.84-.2.77-.22a5.18 5.18 0 0 0 .6-.22 1.32 1.32 0 0 1 .86-.12.8.8 0 0 1 .55.6.87.87 0 0 1 0 .76 1.35 1.35 0 0 1-.74.5l-.76.25-.73.22-.74.17-.83.14a.86.86 0 0 0-.45.16.66.66 0 0 0-.1.42z" class="cls-2"/></svg>